<svg xmlns="http://www.w3.org/2000/svg" width="200" height="200" viewBox="0 0 26 28" fill="none">
  <path fill-rule="evenodd" clip-rule="evenodd" d="M21.4029 23.0724L13.7754 27.8557C13.4804 28.0407 13.1077 28.0483 12.8054 27.8757L5.43776 23.6665C4.74536 23.2714 4.07006 22.8333 3.51443 22.2481C1.45718 20.0783 0.994153 17.5847 1.04117 16.5035L0.860251 2.79294C0.85509 2.40179 1.0922 2.04613 1.45892 1.90995C10.5885 -1.48021 20.1339 0.367543 24.3705 1.91974C24.7266 2.05023 24.9536 2.38995 24.9586 2.76922L25.1398 16.5035C25.1398 18.7476 23.9046 21.3556 21.4029 23.0724ZM17.064 3.13842C17.2843 3.00249 17.2209 2.66953 16.9653 2.62896C10.9004 1.66668 5.24094 2.90527 3.43595 3.84884C3.29414 3.92298 3.21409 4.07117 3.21191 4.23118L3.05726 15.6272C2.83222 17.8954 4.52199 20.0493 5.42879 20.877C5.45233 20.8985 5.47744 20.9165 5.50498 20.9325L12.9754 25.2868C13.1273 25.3753 13.3157 25.3721 13.4644 25.2785L19.7803 21.3064C20.7249 20.7124 21.6651 20.044 22.2179 19.049C22.9028 17.8173 22.9852 16.6593 22.8898 15.9534C22.8649 15.769 22.66 15.6871 22.5007 15.783L13.2433 21.3561C13.0937 21.4462 12.9066 21.4463 12.7569 21.3565L6.73842 17.7444C6.59626 17.6591 6.50929 17.5055 6.50929 17.3397V9.91429C6.50929 9.75057 6.59412 9.59853 6.73346 9.51256L17.064 3.13842ZM19.9813 8.32146C19.9797 8.31832 19.9758 8.31712 19.9726 8.31876L21.1998 7.52917C21.3401 7.43886 21.5277 7.48888 21.6045 7.63707L22.1949 8.77666C22.2633 8.90861 22.218 9.07095 22.0913 9.14853L21.0941 9.75881C20.9637 9.8386 20.7935 9.80055 20.7095 9.67283L20.6644 9.60421C20.58 9.47575 20.4084 9.43812 20.278 9.51944L17.5744 11.2044C17.4914 11.2562 17.4409 11.347 17.4409 11.4448V15.0547C17.4409 15.2728 17.6771 15.409 17.8659 15.2999L20.3929 13.839C20.5288 13.7605 20.5749 13.5863 20.4956 13.4508L20.4337 13.3451C20.3551 13.2108 20.3996 13.0383 20.5333 12.9587L21.5954 12.3263C21.7315 12.2452 21.9077 12.2916 21.9862 12.4292L22.5927 13.4913C22.6688 13.6246 22.625 13.7942 22.4938 13.8738L21.443 14.5124C21.3137 14.591 21.1451 14.5505 21.0656 14.4216C20.987 14.2943 20.8212 14.2529 20.692 14.3285L13.3371 18.6336C13.2509 18.684 13.1447 18.6854 13.0573 18.6372L8.90919 16.3515C8.81981 16.3023 8.76384 16.2087 8.76267 16.1067L8.70372 10.9533C8.70258 10.8531 8.75449 10.7597 8.84023 10.7078L17.0769 5.72018C17.2093 5.64002 17.2528 5.46844 17.1746 5.33486L17.1124 5.22852C17.0329 5.09255 17.0795 4.91779 17.2163 4.8396L18.3331 4.201C18.4707 4.12235 18.646 4.17183 18.7221 4.31078L19.3396 5.43767C19.4124 5.57053 19.3677 5.73714 19.2383 5.81581L18.1711 6.46431C18.0473 6.53952 17.8863 6.50361 17.8062 6.38295C17.7268 6.26341 17.5678 6.22688 17.4442 6.2998L13.9911 8.33758C13.8059 8.44687 13.8052 8.71454 13.9899 8.82473L17.137 10.7029C17.2283 10.7573 17.3423 10.7561 17.4324 10.6998L20.0706 9.04992C20.1968 8.97104 20.2404 8.808 20.1704 8.67667L19.9813 8.32146Z" fill="#155EEF"></path>
</svg>